# xmcd
#
# Track frame offsets:
# 150
# 15755
# 31942
# 47666
# 69968
# 88721
# 109587
# 125829
# 144620
# 164654
# 183328
# 202808
# 221370
# 243135
# 261093
# 275219
#
# Disc length: 4007 seconds
#
# Revision: 1
# Processed by: cddbd v1.4PL0 Copyright (c) Steve Scherf et al.
# Submitted via: Easy CD Ripper v2.10
#
DISCID=dc0fa510
DTITLE=Blues Ally - By Request
DYEAR=2000
DGENRE=Blues
TTITLE0=Looking Back - Blues Alley
TTITLE1=You Don't Have to Go - Blues Alley
TTITLE2=You Hide Your Lies - Blues Alley
TTITLE3=Boogie Down Boogie - Blues Alley
TTITLE4=(They Call Me) Mr. Blue - Blues Alley
TTITLE5=Hoochie Coochie Man - Blues Alley
TTITLE6=Juke It Off The Wall - Blues Alley
TTITLE7=Baby What You Want - Blues Alley
TTITLE8=Take Out Some Insurance - Blues Alley
TTITLE9=Running From Love - Blues Alley
TTITLE10=She's Hot (Distant Dream) - Blues Alley
TTITLE11=If You Love Me Like You Say - Blues Alley
TTITLE12=Big Rear Window - Blues Alley
TTITLE13=All Your Lovin - Blues Alley
TTITLE14=Wolfbite - Blues Alley
TTITLE15=Help Me Somebody - Blues Alley
EXTD=
EXTT0=
EXTT1=
EXTT2=
EXTT3=
EXTT4=
EXTT5=
EXTT6=
EXTT7=
EXTT8=
EXTT9=
EXTT10=
EXTT11=
EXTT12=
EXTT13=
EXTT14=
EXTT15=
PLAYORDER=
